<?xml version="1.0" encoding="UTF-8"?>
<svg xmlns="http://www.w3.org/2000/svg" xmlns:xlink="http://www.w3.org/1999/xlink" width="59.613" height="67.713" viewBox="0 0 59.613 67.713">
<defs>
<clipPath id="clip-0">
<path clip-rule="nonzero" d="M 0 0.0742188 L 39 0.0742188 L 39 67.351562 L 0 67.351562 Z M 0 0.0742188 "/>
</clipPath>
<clipPath id="clip-1">
<path clip-rule="nonzero" d="M 33 58 L 54 58 L 54 67.351562 L 33 67.351562 Z M 33 58 "/>
</clipPath>
<clipPath id="clip-2">
<path clip-rule="nonzero" d="M 28 54 L 58 54 L 58 67.351562 L 28 67.351562 Z M 28 54 "/>
</clipPath>
<clipPath id="clip-3">
<path clip-rule="nonzero" d="M 0 20 L 59.226562 20 L 59.226562 37 L 0 37 Z M 0 20 "/>
</clipPath>
<clipPath id="clip-4">
<path clip-rule="nonzero" d="M 0 25 L 59.226562 25 L 59.226562 42 L 0 42 Z M 0 25 "/>
</clipPath>
<clipPath id="clip-5">
<path clip-rule="nonzero" d="M 0 11 L 59.226562 11 L 59.226562 37 L 0 37 Z M 0 11 "/>
</clipPath>
<clipPath id="clip-6">
<path clip-rule="nonzero" d="M 0 25 L 59.226562 25 L 59.226562 51 L 0 51 Z M 0 25 "/>
</clipPath>
<clipPath id="clip-7">
<path clip-rule="nonzero" d="M 7 3 L 59.226562 3 L 59.226562 37 L 7 37 Z M 7 3 "/>
</clipPath>
<clipPath id="clip-8">
<path clip-rule="nonzero" d="M 7 25 L 59.226562 25 L 59.226562 59 L 7 59 Z M 7 25 "/>
</clipPath>
</defs>
<g clip-path="url(#clip-0)">
<path fill="none" stroke-width="0.3985" stroke-linecap="butt" stroke-linejoin="miter" stroke="rgb(0%, 0%, 0%)" stroke-opacity="1" stroke-miterlimit="10" d="M 14.172573 28.345918 L 16.677008 30.850353 M 9.74165 28.003868 L 11.829334 30.866079 M 5.41688 26.969855 L 7.02884 30.126937 M 1.312281 25.267468 L 2.405268 28.636857 M -2.47779 22.943888 L -1.923433 26.443019 M -5.858974 20.058087 L -5.855042 23.600466 M -8.748706 16.680835 L -9.2952 20.179967 M -11.076219 12.894695 L -12.165275 16.268016 M -12.782537 8.790096 L -14.390565 11.951109 M -13.824413 4.469257 L -15.904235 7.3354 M -14.174327 0.0383343 L -16.67483 2.546701 M -13.836208 -4.396521 L -16.694488 -2.304905 M -12.806127 -8.72129 L -15.959277 -7.105399 M -11.111603 -12.829822 L -14.480992 -11.732903 M -8.791954 -16.619893 L -12.291086 -16.065536 M -5.910085 -20.005008 L -9.452464 -19.997145 M -2.536764 -22.898672 L -6.035896 -23.445166 M 1.245443 -25.234048 L -2.127877 -26.319172 M 5.350043 -26.944297 L 2.189029 -28.548394 M 9.670881 -27.990105 L 6.800807 -30.069927 M 14.097873 -28.347882 L 11.589506 -30.844453 M 14.172573 28.345918 C -1.483093 28.345918 -14.174327 15.654685 -14.174327 -0.000981833 C -14.174327 -15.656648 -1.483093 -28.347882 14.172573 -28.347882 " transform="matrix(0.99355, 0, 0, -0.99355, 16.786027, 30.940431)"/>
</g>
<path fill="none" stroke-width="0.797" stroke-linecap="butt" stroke-linejoin="bevel" stroke="rgb(0%, 0%, 0%)" stroke-opacity="1" stroke-miterlimit="10" d="M 2.479969 -2.481827 L -0.000876654 2.479863 L 4.960814 2.479863 Z M 2.479969 -2.481827 " transform="matrix(0.99355, 0, 0, -0.99355, 16.786027, 30.940431)"/>
<path fill="none" stroke-width="0.3985" stroke-linecap="butt" stroke-linejoin="miter" stroke="rgb(0%, 0%, 0%)" stroke-opacity="1" stroke-miterlimit="10" d="M 2.479969 -2.481827 L 2.479969 2.479863 " transform="matrix(0.99355, 0, 0, -0.99355, 16.786027, 30.940431)"/>
<path fill="none" stroke-width="0.3985" stroke-linecap="butt" stroke-linejoin="miter" stroke="rgb(0%, 0%, 0%)" stroke-opacity="1" stroke-miterlimit="10" d="M 2.479969 -2.481827 L 2.479969 -9.692398 L 19.094948 -9.692398 L 19.094948 -27.915405 " transform="matrix(0.99355, 0, 0, -0.99355, 16.786027, 30.940431)"/>
<g clip-path="url(#clip-1)">
<path fill="none" stroke-width="0.797" stroke-linecap="butt" stroke-linejoin="miter" stroke="rgb(0%, 0%, 0%)" stroke-opacity="1" stroke-miterlimit="10" d="M 36.578812 -36.250416 L 16.735982 -36.250416 L 16.735982 -28.312497 L 36.578812 -28.312497 Z M 36.578812 -36.250416 " transform="matrix(0.99355, 0, 0, -0.99355, 16.786027, 30.940431)"/>
</g>
<g clip-path="url(#clip-2)">
<path fill="none" stroke-width="0.3985" stroke-linecap="butt" stroke-linejoin="miter" stroke="rgb(0%, 0%, 0%)" stroke-opacity="1" stroke-miterlimit="10" d="M 35.088733 -32.279491 C 35.088733 -30.911291 33.980019 -29.802577 32.607887 -29.802577 C 31.239687 -29.802577 30.127042 -30.911291 30.127042 -32.279491 C 30.127042 -33.651622 31.239687 -34.760336 32.607887 -34.760336 C 33.980019 -34.760336 35.088733 -33.651622 35.088733 -32.279491 Z M 33.999677 -31.288725 C 33.999677 -30.95847 33.732328 -30.695052 33.402072 -30.695052 C 33.075749 -30.695052 32.808399 -30.95847 32.808399 -31.288725 C 32.808399 -31.61898 33.075749 -31.88633 33.402072 -31.88633 C 33.732328 -31.88633 33.999677 -31.61898 33.999677 -31.288725 Z M 19.71221 -30.793343 C 19.71221 -30.246849 19.267938 -29.802577 18.717513 -29.802577 C 18.17102 -29.802577 17.726748 -30.246849 17.726748 -30.793343 C 17.726748 -31.339836 18.17102 -31.784108 18.717513 -31.784108 C 19.267938 -31.784108 19.71221 -31.339836 19.71221 -30.793343 Z M 19.71221 -33.76957 C 19.71221 -33.223077 19.267938 -32.778805 18.717513 -32.778805 C 18.17102 -32.778805 17.726748 -33.223077 17.726748 -33.76957 C 17.726748 -34.316064 18.17102 -34.760336 18.717513 -34.760336 C 19.267938 -34.760336 19.71221 -34.316064 19.71221 -33.76957 Z M 28.640894 -29.802577 L 21.198358 -29.802577 L 21.198358 -34.760336 L 28.640894 -34.760336 Z M 28.640894 -29.802577 " transform="matrix(0.99355, 0, 0, -0.99355, 16.786027, 30.940431)"/>
</g>
<g clip-path="url(#clip-3)">
<path fill="none" stroke-width="0.3985" stroke-linecap="butt" stroke-linejoin="miter" stroke="rgb(88.233948%, 31.373596%, 13.723755%)" stroke-opacity="1" stroke-miterlimit="10" d="M -0.000876654 -0.000981833 L -13.74185 4.921392 L 42.519473 4.921392 " transform="matrix(0.99355, 0, 0, -0.99355, 16.786027, 30.940431)"/>
</g>
<g clip-path="url(#clip-4)">
<path fill="none" stroke-width="0.3985" stroke-linecap="butt" stroke-linejoin="miter" stroke="rgb(88.233948%, 31.373596%, 13.723755%)" stroke-opacity="1" stroke-miterlimit="10" d="M -0.000876654 -0.000981833 L -13.74185 -4.923356 L 42.519473 -4.923356 " transform="matrix(0.99355, 0, 0, -0.99355, 16.786027, 30.940431)"/>
</g>
<g clip-path="url(#clip-5)">
<path fill="none" stroke-width="0.3985" stroke-linecap="butt" stroke-linejoin="miter" stroke="rgb(88.233948%, 31.373596%, 13.723755%)" stroke-opacity="1" stroke-miterlimit="10" d="M -0.000876654 -0.000981833 L -10.376392 14.172468 L 42.519473 14.172468 " transform="matrix(0.99355, 0, 0, -0.99355, 16.786027, 30.940431)"/>
</g>
<g clip-path="url(#clip-6)">
<path fill="none" stroke-width="0.3985" stroke-linecap="butt" stroke-linejoin="miter" stroke="rgb(88.233948%, 31.373596%, 13.723755%)" stroke-opacity="1" stroke-miterlimit="10" d="M -0.000876654 -0.000981833 L -10.376392 -14.174432 L 42.519473 -14.174432 " transform="matrix(0.99355, 0, 0, -0.99355, 16.786027, 30.940431)"/>
</g>
<g clip-path="url(#clip-7)">
<path fill="none" stroke-width="0.3985" stroke-linecap="butt" stroke-linejoin="miter" stroke="rgb(88.233948%, 31.373596%, 13.723755%)" stroke-opacity="1" stroke-miterlimit="10" d="M -0.000876654 -0.000981833 L -4.046502 21.713294 L 42.519473 21.713294 " transform="matrix(0.99355, 0, 0, -0.99355, 16.786027, 30.940431)"/>
</g>
<g clip-path="url(#clip-8)">
<path fill="none" stroke-width="0.3985" stroke-linecap="butt" stroke-linejoin="miter" stroke="rgb(88.233948%, 31.373596%, 13.723755%)" stroke-opacity="1" stroke-miterlimit="10" d="M -0.000876654 -0.000981833 L -4.046502 -21.715258 L 42.519473 -21.715258 " transform="matrix(0.99355, 0, 0, -0.99355, 16.786027, 30.940431)"/>
</g>
</svg>
