<?xml version="1.0" encoding="UTF-8"?>
<svg xmlns="http://www.w3.org/2000/svg" xmlns:xlink="http://www.w3.org/1999/xlink" width="255.135" height="150.089" viewBox="0 0 255.135 150.089">
<defs>
<g>
<g id="glyph-0-0">
<path d="M 1.890625 -5.1875 C 2.03125 -5.765625 2.125 -6.125 2.125 -6.125 C 2.125 -6.1875 2.09375 -6.21875 2.015625 -6.21875 C 1.765625 -6.125 1.125 -6.015625 0.765625 -5.984375 L 0.734375 -5.765625 C 0.734375 -5.75 0.75 -5.734375 0.78125 -5.734375 L 1.0625 -5.703125 C 1.171875 -5.703125 1.25 -5.65625 1.25 -5.453125 C 1.25 -5.359375 1.234375 -5.203125 1.1875 -5.015625 L 0.296875 -1.0625 C 0.234375 -0.78125 0.171875 -0.46875 0.171875 -0.296875 C 0.171875 -0.140625 0.21875 0.09375 0.546875 0.09375 C 0.953125 0.09375 1.4375 -0.140625 1.84375 -0.8125 C 1.8125 -0.90625 1.765625 -0.96875 1.640625 -0.96875 C 1.375 -0.640625 1.09375 -0.453125 0.984375 -0.453125 C 0.921875 -0.453125 0.875 -0.5 0.875 -0.5625 C 0.875 -0.640625 0.90625 -0.78125 0.984375 -1.125 Z M 1.890625 -5.1875 "/>
</g>
<g id="glyph-0-1">
<path d="M 1.578125 -0.703125 L 2.328125 -2 C 2.390625 -2.109375 2.453125 -2.140625 2.65625 -2.140625 L 4.4375 -2.140625 L 4.671875 -0.640625 C 4.671875 -0.609375 4.671875 -0.59375 4.671875 -0.5625 C 4.671875 -0.359375 4.53125 -0.28125 4.234375 -0.265625 L 3.984375 -0.234375 C 3.953125 -0.234375 3.921875 -0.21875 3.921875 -0.171875 L 3.90625 0 L 3.90625 0.015625 C 4.234375 0.015625 4.71875 0 5.046875 0 C 5.390625 0 5.734375 0.015625 6.046875 0.015625 L 6.0625 0 L 6.078125 -0.171875 C 6.09375 -0.21875 6.0625 -0.234375 6.015625 -0.234375 L 5.921875 -0.25 C 5.578125 -0.28125 5.4375 -0.421875 5.390625 -0.765625 L 4.5625 -5.59375 C 4.546875 -5.765625 4.515625 -5.859375 4.390625 -5.859375 C 4.265625 -5.859375 4.1875 -5.78125 4.046875 -5.546875 L 1.234375 -0.90625 C 0.90625 -0.359375 0.65625 -0.265625 0.28125 -0.234375 C 0.234375 -0.234375 0.21875 -0.21875 0.203125 -0.171875 L 0.171875 0 L 0.1875 0.015625 C 0.5 0.015625 0.65625 0 0.984375 0 C 1.328125 0 1.78125 0.015625 2.09375 0.015625 L 2.125 0 L 2.140625 -0.171875 C 2.140625 -0.21875 2.125 -0.234375 2.078125 -0.234375 L 1.84375 -0.265625 C 1.625 -0.28125 1.515625 -0.359375 1.515625 -0.5 C 1.515625 -0.5625 1.546875 -0.625 1.578125 -0.703125 Z M 2.890625 -2.515625 C 2.75 -2.515625 2.6875 -2.53125 2.6875 -2.578125 C 2.6875 -2.59375 2.6875 -2.625 2.703125 -2.640625 L 3.984375 -4.90625 L 4.015625 -4.90625 L 4.375 -2.515625 Z M 2.890625 -2.515625 "/>
</g>
<g id="glyph-0-2">
<path d="M 6.1875 -4.953125 C 6.25 -5.234375 6.40625 -5.453125 6.75 -5.484375 L 6.984375 -5.5 C 7.015625 -5.5 7.078125 -5.53125 7.078125 -5.578125 L 7.09375 -5.75 L 7.078125 -5.765625 C 6.671875 -5.75 6.34375 -5.75 6.140625 -5.75 C 5.9375 -5.75 5.5625 -5.75 5.171875 -5.765625 L 5.140625 -5.75 L 5.125 -5.578125 C 5.109375 -5.546875 5.1875 -5.5 5.234375 -5.5 L 5.4375 -5.484375 C 5.734375 -5.46875 5.828125 -5.296875 5.828125 -5.09375 C 5.828125 -5.046875 5.8125 -5 5.8125 -4.953125 L 5.140625 -1.578125 C 5.109375 -1.421875 5.09375 -1.3125 5.046875 -1.3125 C 4.96875 -1.3125 4.890625 -1.484375 4.703125 -1.8125 L 2.53125 -5.765625 L 1.359375 -5.765625 L 1.34375 -5.75 L 1.3125 -5.578125 C 1.3125 -5.53125 1.375 -5.515625 1.4375 -5.5 C 1.71875 -5.484375 1.90625 -5.125 1.921875 -4.90625 L 1.109375 -0.78125 C 1.0625 -0.546875 0.90625 -0.28125 0.546875 -0.265625 L 0.328125 -0.234375 C 0.234375 -0.234375 0.203125 -0.203125 0.203125 -0.15625 L 0.171875 0 L 0.203125 0.015625 C 0.59375 0.015625 0.96875 0 1.171875 0 C 1.390625 0 1.703125 0.015625 2.109375 0.015625 L 2.125 0 L 2.140625 -0.171875 C 2.140625 -0.21875 2.125 -0.234375 2.078125 -0.234375 L 1.859375 -0.265625 C 1.59375 -0.28125 1.484375 -0.453125 1.484375 -0.65625 C 1.484375 -0.6875 1.484375 -0.734375 1.5 -0.78125 L 2.109375 -3.90625 C 2.171875 -4.21875 2.203125 -4.34375 2.265625 -4.34375 C 2.328125 -4.34375 2.390625 -4.25 2.515625 -4.046875 L 4.734375 -0.125 C 4.796875 0.015625 4.890625 0.09375 5.03125 0.09375 C 5.140625 0.09375 5.234375 -0.015625 5.265625 -0.1875 Z M 6.1875 -4.953125 "/>
</g>
</g>
<clipPath id="clip-0">
<path clip-rule="nonzero" d="M 0.339844 5 L 61 5 L 61 72 L 0.339844 72 Z M 0.339844 5 "/>
</clipPath>
<clipPath id="clip-1">
<path clip-rule="nonzero" d="M 0.339844 145 L 4 145 L 4 149 L 0.339844 149 Z M 0.339844 145 "/>
</clipPath>
<clipPath id="clip-2">
<path clip-rule="nonzero" d="M 0.339844 134 L 16 134 L 16 149.183594 L 0.339844 149.183594 Z M 0.339844 134 "/>
</clipPath>
<clipPath id="clip-3">
<path clip-rule="nonzero" d="M 206 134 L 233 134 L 233 149.183594 L 206 149.183594 Z M 206 134 "/>
</clipPath>
<clipPath id="clip-4">
<path clip-rule="nonzero" d="M 0.339844 0 L 12 0 L 12 14 L 0.339844 14 Z M 0.339844 0 "/>
</clipPath>
</defs>
<path fill-rule="nonzero" fill="rgb(89.99939%, 89.99939%, 89.99939%)" fill-opacity="1" d="M 30.824219 25.660156 C 25.902344 25.660156 21.910156 39.265625 21.910156 56.046875 C 21.910156 72.832031 25.902344 86.433594 30.824219 86.433594 L 197.496094 86.433594 C 192.574219 86.433594 188.585938 72.832031 188.585938 56.046875 C 188.585938 39.265625 192.574219 25.660156 197.496094 25.660156 Z M 30.824219 25.660156 "/>
<path fill-rule="nonzero" fill="rgb(59.999084%, 59.999084%, 59.999084%)" fill-opacity="1" d="M 197.496094 25.660156 C 202.417969 25.660156 206.410156 39.265625 206.410156 56.046875 C 206.410156 72.832031 202.417969 86.433594 197.496094 86.433594 C 192.574219 86.433594 188.585938 72.832031 188.585938 56.046875 C 188.585938 39.265625 192.574219 25.660156 197.496094 25.660156 Z M 197.496094 25.660156 "/>
<path fill="none" stroke-width="0.79701" stroke-linecap="butt" stroke-linejoin="miter" stroke="rgb(0%, 0%, 0%)" stroke-opacity="1" stroke-miterlimit="10" d="M -1.887487 34.939093 C -6.839236 34.939093 -10.855656 21.251043 -10.855656 4.367935 C -10.855656 -12.519102 -6.839236 -26.203222 -1.887487 -26.203222 L 165.796042 -26.203222 C 170.747791 -26.203222 174.76421 -12.519102 174.76421 4.367935 C 174.76421 21.251043 170.747791 34.939093 165.796042 34.939093 Z M 165.796042 34.939093 C 160.844292 34.939093 156.831803 21.251043 156.831803 4.367935 C 156.831803 -12.519102 160.844292 -26.203222 165.796042 -26.203222 " transform="matrix(0.993967, 0, 0, -0.993967, 32.700318, 60.388458)"/>
<path fill="none" stroke-width="0.79701" stroke-linecap="butt" stroke-linejoin="miter" stroke="rgb(0%, 0%, 0%)" stroke-opacity="1" stroke-miterlimit="10" d="M 28.605072 -25.668748 C 28.605072 -25.668748 25.673322 -33.619057 24.254606 -35.898434 C 22.835891 -38.17781 20.104569 -41.030961 18.371456 -42.09598 C 16.638344 -43.160999 13.576905 -43.844812 11.769124 -43.573645 C 9.965272 -43.306408 6.982432 -41.734424 5.347569 -40.16244 C 3.716636 -38.590456 1.225041 -34.939523 -0.0128962 -32.239641 C -1.246904 -29.539758 -2.901417 -24.226453 -3.55379 -20.705209 C -4.210093 -17.180035 -4.772078 -10.79385 -4.724918 -6.84424 C -4.681689 -2.8907 -4.017525 3.845251 -3.235463 7.783071 C -2.453401 11.72089 -0.567021 18.055986 0.910644 21.53793 C 2.384379 25.019875 5.351499 30.242791 7.399008 32.879794 C 9.446517 35.512868 13.227139 39.038042 15.659784 40.527496 C 18.092429 42.020881 22.340716 43.447457 24.930559 43.628235 C 27.516473 43.809013 31.819779 42.979791 34.315303 41.832243 C 36.814758 40.684695 42.933706 35.343879 42.933706 35.343879 " transform="matrix(0.993967, 0, 0, -0.993967, 32.700318, 60.388458)"/>
<path fill="none" stroke-width="0.79701" stroke-linecap="butt" stroke-linejoin="miter" stroke="rgb(0%, 0%, 0%)" stroke-opacity="1" stroke-miterlimit="10" d="M 54.810044 -25.668748 C 54.810044 -25.668748 51.878294 -33.619057 50.459579 -35.898434 C 49.040863 -38.17781 46.309541 -41.030961 44.576429 -42.09598 C 42.843316 -43.160999 39.781878 -43.844812 37.974096 -43.573645 C 36.170245 -43.306408 33.187405 -41.734424 31.552542 -40.16244 C 29.921608 -38.590456 27.430014 -34.939523 26.192076 -32.239641 C 24.958069 -29.539758 23.303556 -24.226453 22.651183 -20.705209 C 21.994879 -17.180035 21.432895 -10.79385 21.480054 -6.84424 C 21.523284 -2.8907 22.187447 3.845251 22.969509 7.783071 C 23.751571 11.72089 25.637952 18.055986 27.115617 21.53793 C 28.589352 25.019875 31.556472 30.242791 33.603981 32.879794 C 35.65149 35.512868 39.432111 39.038042 41.864756 40.527496 C 44.297402 42.020881 48.545688 43.447457 51.135532 43.628235 C 53.721445 43.809013 58.024751 42.979791 60.520276 41.832243 C 63.019731 40.684695 69.138678 35.343879 69.138678 35.343879 " transform="matrix(0.993967, 0, 0, -0.993967, 32.700318, 60.388458)"/>
<path fill="none" stroke-width="0.79701" stroke-linecap="butt" stroke-linejoin="miter" stroke="rgb(0%, 0%, 0%)" stroke-opacity="1" stroke-miterlimit="10" d="M 81.015017 -25.668748 C 81.015017 -25.668748 78.083267 -33.619057 76.664551 -35.898434 C 75.245836 -38.17781 72.514514 -41.030961 70.781401 -42.09598 C 69.048289 -43.160999 65.98685 -43.844812 64.179069 -43.573645 C 62.375217 -43.306408 59.392378 -41.734424 57.761444 -40.16244 C 56.126581 -38.590456 53.634986 -34.939523 52.397049 -32.239641 C 51.163042 -29.539758 49.508528 -24.226453 48.856155 -20.705209 C 48.199852 -17.180035 47.637868 -10.79385 47.685027 -6.84424 C 47.728257 -2.8907 48.39242 3.845251 49.174482 7.783071 C 49.956544 11.72089 51.842925 18.055986 53.32059 21.53793 C 54.794324 25.019875 57.761444 30.242791 59.808953 32.879794 C 61.856462 35.512868 65.637084 39.038042 68.069729 40.527496 C 70.502374 42.020881 74.750661 43.447457 77.340504 43.628235 C 79.926418 43.809013 84.229724 42.979791 86.725249 41.832243 C 89.224703 40.684695 95.343651 35.343879 95.343651 35.343879 " transform="matrix(0.993967, 0, 0, -0.993967, 32.700318, 60.388458)"/>
<path fill="none" stroke-width="0.79701" stroke-linecap="butt" stroke-linejoin="miter" stroke="rgb(0%, 0%, 0%)" stroke-opacity="1" stroke-miterlimit="10" d="M 107.219989 -25.668748 C 107.219989 -25.668748 104.288239 -33.619057 102.869524 -35.898434 C 101.450808 -38.17781 98.719486 -41.030961 96.986374 -42.09598 C 95.253262 -43.160999 92.191823 -43.844812 90.384041 -43.573645 C 88.58019 -43.306408 85.59735 -41.734424 83.966417 -40.16244 C 82.331553 -38.590456 79.839959 -34.939523 78.602021 -32.239641 C 77.368014 -29.539758 75.713501 -24.226453 75.061128 -20.705209 C 74.404824 -17.180035 73.84284 -10.79385 73.89 -6.84424 C 73.933229 -2.8907 74.597392 3.845251 75.379454 7.783071 C 76.161516 11.72089 78.047897 18.055986 79.525562 21.53793 C 80.999297 25.019875 83.966417 30.242791 86.013926 32.879794 C 88.061435 35.512868 91.842056 39.038042 94.274702 40.527496 C 96.707347 42.020881 100.955633 43.447457 103.545477 43.628235 C 106.131391 43.809013 110.434697 42.979791 112.930221 41.832243 C 115.429676 40.684695 121.548623 35.343879 121.548623 35.343879 " transform="matrix(0.993967, 0, 0, -0.993967, 32.700318, 60.388458)"/>
<path fill="none" stroke-width="0.79701" stroke-linecap="butt" stroke-linejoin="miter" stroke="rgb(0%, 0%, 0%)" stroke-opacity="1" stroke-miterlimit="10" d="M 133.424962 -25.668748 C 133.424962 -25.668748 130.493212 -33.619057 129.074496 -35.898434 C 127.655781 -38.17781 124.924459 -41.030961 123.191346 -42.09598 C 121.458234 -43.160999 118.396795 -43.844812 116.589014 -43.573645 C 114.785162 -43.306408 111.806253 -41.734424 110.171389 -40.16244 C 108.536526 -38.590456 106.044931 -34.939523 104.806994 -32.239641 C 103.572987 -29.539758 101.918474 -24.226453 101.2661 -20.705209 C 100.609797 -17.180035 100.047813 -10.79385 100.094972 -6.84424 C 100.138202 -2.8907 100.802365 3.845251 101.584427 7.783071 C 102.366489 11.72089 104.25287 18.055986 105.730535 21.53793 C 107.20427 25.019875 110.171389 30.242791 112.218898 32.879794 C 114.266407 35.512868 118.047029 39.038042 120.479674 40.527496 C 122.912319 42.020881 127.160606 43.447457 129.750449 43.628235 C 132.336363 43.809013 136.639669 42.979791 139.135194 41.832243 C 141.634648 40.684695 147.753596 35.343879 147.753596 35.343879 " transform="matrix(0.993967, 0, 0, -0.993967, 32.700318, 60.388458)"/>
<path fill="none" stroke-width="0.79701" stroke-linecap="butt" stroke-linejoin="miter" stroke="rgb(0%, 0%, 0%)" stroke-opacity="1" stroke-miterlimit="10" d="M 159.629935 -25.668748 C 159.629935 -25.668748 156.698184 -33.619057 155.279469 -35.898434 C 153.860753 -38.17781 151.129431 -41.030961 149.396319 -42.09598 C 147.663207 -43.160999 144.601768 -43.844812 142.793986 -43.573645 C 140.990135 -43.306408 138.011225 -41.734424 136.376362 -40.16244 C 134.741499 -38.590456 132.249904 -34.939523 131.015897 -32.239641 C 129.777959 -29.539758 128.123446 -24.226453 127.471073 -20.705209 C 126.814769 -17.180035 126.252785 -10.79385 126.299945 -6.84424 C 126.343174 -2.8907 127.007337 3.845251 127.789399 7.783071 C 128.571461 11.72089 130.461772 18.055986 131.935507 21.53793 C 133.409242 25.019875 136.376362 30.242791 138.423871 32.879794 C 140.47138 35.512868 144.252001 39.038042 146.684647 40.527496 C 149.117292 42.020881 153.365578 43.447457 155.955422 43.628235 C 158.541336 43.809013 162.844642 42.979791 165.340166 41.832243 C 167.839621 40.684695 173.958568 35.343879 173.958568 35.343879 " transform="matrix(0.993967, 0, 0, -0.993967, 32.700318, 60.388458)"/>
<path fill="none" stroke-width="0.79701" stroke-linecap="butt" stroke-linejoin="miter" stroke="rgb(0%, 0%, 0%)" stroke-opacity="1" stroke-miterlimit="10" d="M 157.228729 43.675394 C 157.228729 43.675394 159.515966 43.549636 160.388417 43.396367 C 161.256938 43.247029 162.652074 42.881542 163.508805 42.578936 C 164.365536 42.276329 165.729232 41.671115 166.562384 41.223099 C 167.399465 40.775084 168.719932 39.938002 169.521644 39.348508 C 170.323355 38.762944 171.584872 37.705785 172.347285 36.982673 C 173.105767 36.25956 174.296545 34.994113 175.011798 34.149172 C 175.72312 33.30423 176.827439 31.846215 177.487672 30.887305 C 178.143976 29.928395 179.153975 28.297461 179.747399 27.236372 C 180.344753 26.175283 181.248644 24.395011 181.775258 23.243533 C 182.301873 22.095985 183.091795 20.182094 183.54767 18.959877 C 183.999616 17.737659 184.671639 15.71766 185.044985 14.436493 C 185.422261 13.155326 185.964596 11.052797 186.259343 9.732331 C 186.55409 8.407934 186.966736 6.250386 187.178953 4.90241 C 187.395101 3.554434 187.799887 0.0174699 187.799887 0.0174699 " transform="matrix(0.993967, 0, 0, -0.993967, 32.700318, 60.388458)"/>
<g clip-path="url(#clip-0)">
<path fill="none" stroke-width="0.79701" stroke-linecap="butt" stroke-linejoin="miter" stroke="rgb(0%, 0%, 0%)" stroke-opacity="1" stroke-miterlimit="10" d="M -30.572264 0.00175005 C -30.572264 0.00175005 -29.96705 4.957429 -29.621214 6.83202 C -29.275378 8.702681 -28.591564 11.689451 -28.0846 13.493302 C -27.581565 15.297154 -26.642304 18.134585 -25.989931 19.824468 C -25.333628 21.510421 -24.15857 24.131704 -23.364718 25.664388 C -22.570866 27.197072 -21.18359 29.535399 -20.263979 30.875515 C -19.344369 32.215631 -17.768455 34.212051 -16.742735 35.32816 C -15.717016 36.440338 -13.987834 38.047692 -12.875655 38.908353 C -11.767406 39.769014 -9.912465 40.944072 -8.741337 41.533566 C -7.566279 42.11913 -5.632739 42.838313 -4.422311 43.13306 C -3.211884 43.431737 -1.235114 43.671464 -0.00896621 43.675394 C 1.213251 43.675394 3.190021 43.435667 4.400449 43.14092 C 5.610876 42.842243 7.548347 42.12699 8.719475 41.541426 C 9.894533 40.955862 11.745544 39.780804 12.857722 38.924073 C 13.969901 38.063412 16.724803 35.347809 16.724803 35.347809 " transform="matrix(0.993967, 0, 0, -0.993967, 32.700318, 60.388458)"/>
</g>
<path fill="none" stroke-width="0.79701" stroke-linecap="butt" stroke-linejoin="miter" stroke="rgb(0%, 0%, 0%)" stroke-opacity="1" stroke-miterlimit="10" d="M -30.572264 0.00175005 L -30.572264 -43.675824 M -30.572264 -43.675824 L -30.572264 -87.349468 " transform="matrix(0.993967, 0, 0, -0.993967, 32.700318, 60.388458)"/>
<g clip-path="url(#clip-1)">
<path fill-rule="nonzero" fill="rgb(100%, 100%, 100%)" fill-opacity="1" d="M 3.890625 147.210938 C 3.890625 146.339844 3.183594 145.632812 2.3125 145.632812 C 1.441406 145.632812 0.734375 146.339844 0.734375 147.210938 C 0.734375 148.082031 1.441406 148.789062 2.3125 148.789062 C 3.183594 148.789062 3.890625 148.082031 3.890625 147.210938 Z M 3.890625 147.210938 "/>
</g>
<g clip-path="url(#clip-2)">
<path fill="none" stroke-width="0.79701" stroke-linecap="butt" stroke-linejoin="miter" stroke="rgb(0%, 0%, 0%)" stroke-opacity="1" stroke-miterlimit="10" d="M -28.98456 -87.349468 C -28.98456 -86.473087 -29.695883 -85.761765 -30.572264 -85.761765 C -31.448645 -85.761765 -32.159968 -86.473087 -32.159968 -87.349468 C -32.159968 -88.225849 -31.448645 -88.937172 -30.572264 -88.937172 C -29.695883 -88.937172 -28.98456 -88.225849 -28.98456 -87.349468 Z M -28.98456 -87.349468 " transform="matrix(0.993967, 0, 0, -0.993967, 32.700318, 60.388458)"/>
</g>
<path fill="none" stroke-width="0.79701" stroke-linecap="butt" stroke-linejoin="miter" stroke="rgb(0%, 0%, 0%)" stroke-opacity="1" stroke-miterlimit="10" d="M 187.799887 0.00175005 L 187.799887 -43.675824 M 187.799887 -43.675824 L 187.799887 -87.349468 " transform="matrix(0.993967, 0, 0, -0.993967, 32.700318, 60.388458)"/>
<path fill-rule="nonzero" fill="rgb(100%, 100%, 100%)" fill-opacity="1" d="M 220.945312 147.210938 C 220.945312 146.339844 220.238281 145.632812 219.367188 145.632812 C 218.496094 145.632812 217.789062 146.339844 217.789062 147.210938 C 217.789062 148.082031 218.496094 148.789062 219.367188 148.789062 C 220.238281 148.789062 220.945312 148.082031 220.945312 147.210938 Z M 220.945312 147.210938 "/>
<g clip-path="url(#clip-3)">
<path fill="none" stroke-width="0.79701" stroke-linecap="butt" stroke-linejoin="miter" stroke="rgb(0%, 0%, 0%)" stroke-opacity="1" stroke-miterlimit="10" d="M 189.387591 -87.349468 C 189.387591 -86.473087 188.676268 -85.761765 187.799887 -85.761765 C 186.923506 -85.761765 186.212183 -86.473087 186.212183 -87.349468 C 186.212183 -88.225849 186.923506 -88.937172 187.799887 -88.937172 C 188.676268 -88.937172 189.387591 -88.225849 189.387591 -87.349468 Z M 189.387591 -87.349468 " transform="matrix(0.993967, 0, 0, -0.993967, 32.700318, 60.388458)"/>
</g>
<g fill="rgb(0%, 0%, 0%)" fill-opacity="1">
<use xlink:href="#glyph-0-0" x="109.98025" y="9.191212"/>
</g>
<path fill="none" stroke-width="0.3985" stroke-linecap="butt" stroke-linejoin="miter" stroke="rgb(0%, 0%, 0%)" stroke-opacity="1" stroke-miterlimit="10" d="M -30.273587 54.592823 L 74.562023 54.592823 " transform="matrix(0.993967, 0, 0, -0.993967, 32.700318, 60.388458)"/>
<path fill-rule="nonzero" fill="rgb(0%, 0%, 0%)" fill-opacity="1" d="M 3.105469 6.125 L 6.0625 7.878906 L 6.0625 4.371094 Z M 3.105469 6.125 "/>
<g clip-path="url(#clip-4)">
<path fill="none" stroke-width="0.3985" stroke-linecap="butt" stroke-linejoin="miter" stroke="rgb(0%, 0%, 0%)" stroke-opacity="1" stroke-miterlimit="10" d="M 3.172842 0.000517108 L 0.197863 1.765069 L 0.197863 -1.764035 Z M 3.172842 0.000517108 " transform="matrix(-0.993967, 0, 0, 0.993967, 6.259169, 6.124486)"/>
</g>
<path fill="none" stroke-width="0.3985" stroke-linecap="butt" stroke-linejoin="miter" stroke="rgb(0%, 0%, 0%)" stroke-opacity="1" stroke-miterlimit="10" d="M -0.00104368 2.291684 L -0.00104368 -2.29065 " transform="matrix(-0.993967, 0, 0, 0.993967, 2.510681, 6.124486)"/>
<path fill="none" stroke-width="0.3985" stroke-linecap="butt" stroke-linejoin="miter" stroke="rgb(0%, 0%, 0%)" stroke-opacity="1" stroke-miterlimit="10" d="M 187.50121 54.592823 L 82.66953 54.592823 " transform="matrix(0.993967, 0, 0, -0.993967, 32.700318, 60.388458)"/>
<path fill-rule="nonzero" fill="rgb(0%, 0%, 0%)" fill-opacity="1" stroke-width="0.3985" stroke-linecap="butt" stroke-linejoin="miter" stroke="rgb(0%, 0%, 0%)" stroke-opacity="1" stroke-miterlimit="10" d="M 3.175305 -0.000517108 L 0.200325 1.764035 L 0.200325 -1.765069 Z M 3.175305 -0.000517108 " transform="matrix(0.993967, 0, 0, -0.993967, 215.421977, 6.124486)"/>
<path fill="none" stroke-width="0.3985" stroke-linecap="butt" stroke-linejoin="miter" stroke="rgb(0%, 0%, 0%)" stroke-opacity="1" stroke-miterlimit="10" d="M 0.001419 2.29065 L 0.001419 -2.291684 " transform="matrix(0.993967, 0, 0, -0.993967, 219.170465, 6.124486)"/>
<path fill="none" stroke-width="0.3985" stroke-linecap="butt" stroke-linejoin="miter" stroke="rgb(0%, 0%, 0%)" stroke-opacity="1" stroke-miterlimit="10" d="M 168.88106 1.911711 L 210.102409 -39.305709 " transform="matrix(0.993967, 0, 0, -0.993967, 32.700318, 60.388458)"/>
<path fill-rule="nonzero" fill="rgb(0%, 0%, 0%)" fill-opacity="1" stroke-width="0.3985" stroke-linecap="butt" stroke-linejoin="miter" stroke="rgb(0%, 0%, 0%)" stroke-opacity="1" stroke-miterlimit="10" d="M 3.172865 0.000925863 L 0.199412 1.762766 L 0.199412 -1.760914 Z M 3.172865 0.000925863 " transform="matrix(-0.702834, -0.702834, -0.702834, 0.702834, 200.632992, 58.557472)"/>
<g fill="rgb(0%, 0%, 0%)" fill-opacity="1">
<use xlink:href="#glyph-0-1" x="244.69954" y="108.490492"/>
</g>
<g fill="rgb(0%, 0%, 0%)" fill-opacity="1">
<use xlink:href="#glyph-0-2" x="104.581022" y="122.234072"/>
</g>
</svg>
